<svg cache-id="8a397a11f8624165a68da95f927b8d59" id="e4NgIKFOaEi1" xmlns="http://www.w3.org/2000/svg" xmlns:xlink="http://www.w3.org/1999/xlink" viewBox="0 0 810 809.999993" shape-rendering="geometricPrecision" text-rendering="geometricPrecision" style="background-color:transparent"><path d="M338.464844,790.96875c-1.21875,0-2.339844-.1875-3.554688-.28125l-23.300781-4.589844c-4.585937-.933594-7.488281-5.335937-6.550781-9.921875.933594-4.585937,5.332031-7.488281,9.917968-6.550781l23.300782,4.585938c.1875,0,.46875.1875.75-.1875.277344-.375.277344-.65625.277344-.75-1.027344-93.515626,34.34375-161.289063,35.746093-164.097657c2.152344-4.117187,7.394531-5.710937,11.324219-3.554687c4.117188,2.152344,5.707031,7.394531,3.554688,11.324218-.46875.9375-34.808594,67.121094-33.875,155.953126c0,5.335937-2.335938,10.394531-6.457032,13.761718-2.992187,2.902344-7.015625,4.308594-11.132812,4.308594Zm0,0" fill="#1e1e1e"/><path d="M589.992188,211.242188c26.855468-36.601563,33.40625-84.625,15.90625-126.65625-12.445313-30.046876-37.429688-58.414063-85.808594-71.144532-125.386719-32.949218-210.445313,47.835938-248.71875,119.167969-30.222656,56.257813-106.394532,288.222656,0,427.515625s303.460937,116.355469,333.78125,0c25.449218-97.917969-37.246094-131.898438-55.304688-183.007812-15.066406-42.59375,3.371094-115.609376,40.144532-165.875Zm0,0" fill="#86bb86"/><path d="M304.027344,228.277344c0,0,6.457031-6.738282-8.421875-10.390625-14.875-3.652344-32,2.152343-27.882813,9.082031c4.117188,6.925781,10.386719,1.214844,11.320313,1.027344.75-.1875,5.054687-3.835938,13.195312,0-.375,0,7.484375,6.273437,11.789063.28125Zm0,0" fill="#1e1e1e"/><path d="M401.625,267.6875c5.242188.65625,10.296875-1.496094,13.476562-5.710938c3.085938-4.023437,5.054688-10.296874-1.683593-17.597656-12.257813-13.292968-21.898438,3.558594-22.550781,6.925782-.5625,3.746093.1875,14.980468,10.757812,16.382812Zm0,0" fill="#1e1e1e"/><path d="M473.210938,790.96875c-2.621094,0-5.054688-1.03125-6.738282-3.371094-2.710937-3.652344-2.152344-9.082031,1.5-11.796875c5.050782-3.835937,10.757813-7.957031,16.839844-12.449219c1.6875-1.214843,2.339844-3.089843,2.339844-3.648437-42.480469-59.539063-47.160156-144.910156-47.347656-148.46875-.28125-4.585937,3.367187-8.609375,7.953124-8.890625c4.585938-.1875,8.609376,3.371094,8.890626,7.957031c0,.746094,4.773437,84.0625,44.261718,139.570313c2.617188,3.652344,3.648438,8.238281,2.710938,12.917968-.933594,5.523438-4.304688,10.859376-9.074219,14.230469-5.988281,4.304688-11.511719,8.238281-16.375,11.980469-1.3125,1.3125-3.183594,1.96875-4.960937,1.96875Zm14.128906-31.171875" fill="#1e1e1e"/><path d="M524.675781,325.914062c1.871094-4.773437,2.902344-10.765624,2.621094-15.914062-.46875-8.707031-9.171875-17.507812-20.398437-11.046875-20.960938,12.074219-21.617188,60.378906-8.890626,80.316406c7.207032,11.328125,27.605469,14.605469,27.886719-3.089843.464844-23.867188-12.074219-21.902344-1.21875-50.265626Zm0,0" fill="#fff"/><path id="e4NgIKFOaEi8" d="M412.011719,446.296875c-1.027344,0-1.964844-.1875-3.085938-.28125-13.195312-2.433594-18.058593-19.191406-20.492187-31.546875-3.648438-18.441406-5.523438-46.429688-5.054688-83.40625c0-4.589844,3.835938-8.425781,8.421875-8.425781s8.421875,3.835937,8.421875,8.613281c-.746094,87.898438,10.574219,97.539062,11.789063,98.289062c2.433593-.28125,11.324219-7.207031,25.265625-35.382812c9.546875-19.003906,16.5625-38.195312,16.75-38.476562c1.683594-4.398438,6.457031-6.550782,10.855468-5.054688c4.398438,1.6875,6.550782,6.460938,5.054688,10.859375-.28125.9375-7.957031,21.4375-18.25,41.84375-15.15625,29.488281-27.414062,42.96875-39.675781,42.96875Zm0,0" transform="matrix(.981952-.189131 0.189131 0.981952-61.428069 73.277415)" fill="#1e1e1e"/><path id="e4NgIKFOaEi9" d="M391.238281,354.464844c-6.921875,0-12.722656-5.335938-13.191406-12.449219-.28125-4.589844,0-11.046875.1875-11.796875.464844-7.207031,6.550781-12.917969,13.941406-12.449219c7.207031.46875,12.914063,6.550781,12.445313,13.761719-.1875,2.152344-.28125,6.457031-.1875,8.703125.46875,7.207031-5.050782,13.480469-12.445313,13.949219-.1875.28125-.46875.28125-.75.28125Zm0,0" transform="matrix(.998415-.056285 0.056285 0.998415-23.570768-1.392933)" fill="#1e1e1e"/><path id="e4NgIKFOaEi10" d="M262.949219,445.078125c-12.445313,0-23.113281-13.667969-34.621094-43.996094-7.488281-19.9375-12.539063-39.691406-12.726563-40.441406-1.03125-4.398437,1.683594-9.078125,6.175782-10.296875c4.398437-1.027344,9.078125,1.6875,10.292968,6.179688c0,.1875,4.585938,18.441406,11.324219,36.789062c11.039063,29.859375,18.433594,34.355469,19.648438,34.824219.9375-.65625,5.054687-3.839844,9.917969-20.691407c4.867187-17.035156,9.171874-43.058593,12.726562-77.132812.46875-4.585938,4.585938-7.957031,9.171875-7.488281s7.953125,4.585937,7.484375,9.171875c-7.953125,79.007812-18.996094,111.585937-38.175781,112.988281-.46875.09375-.75.09375-1.21875.09375Zm0,0" transform="matrix(.997719 0.067509-.067509 0.997719 43.028687-33.394173)" fill="#1e1e1e"/><path id="e4NgIKFOaEi11" d="M294.484375,354.464844c-.28125,0-.65625,0-.75,0-7.203125-.46875-12.910156-6.742188-12.445313-13.949219.1875-2.339844,0-6.550781-.1875-8.707031-.464843-7.207032,5.242188-13.476563,12.445313-13.757813c7.207031-.28125,13.476563,5.242188,13.757813,12.449219c0,.75.28125,7.019531.1875,11.792969-.28125,6.835937-6.082032,12.171875-13.007813,12.171875Zm0,0" transform="translate(17.047821-31.828125)" fill="#1e1e1e"/><path id="e4NgIKFOaEi12" d="M201.285156,308.59375c0,0-9.636718-5.710938-23.769531-2.714844-8.421875,1.875-17.308594,1.40625-25.449219-1.683594-10.386718-4.023437-20.214844-11.515624-13.101562-25.929687c13.195312-26.398437,33.40625-5.992187,33.40625-5.992187s-13.664063-23.777344,2.898437-33.886719s36.308594,9.363281,26.015625,70.207031Zm0,0" transform="matrix(0 0 0 0 170.335472 272.222694)" fill="#9e4a4a"/><path id="e4NgIKFOaEi13" d="M401.625,267.6875c5.242188.65625,10.296875-1.496094,13.476562-5.710938c3.085938-4.023437,5.054688-10.296874-1.683593-17.597656-12.257813-13.292968-21.898438,3.558594-22.550781,6.925782-.5625,3.746093.1875,14.980468,10.757812,16.382812Zm0,0" transform="translate(-112.953613-4.066223)" fill="#1e1e1e"/><path d="M304.027344,228.277344c0,0,6.457031-6.738282-8.421875-10.390625-14.875-3.652344-32,2.152343-27.882813,9.082031c4.117188,6.925781,10.386719,1.214844,11.320313,1.027344.75-.1875,5.054687-3.835938,13.195312,0-.375,0,7.484375,6.273437,11.789063.28125Zm0,0" fill="#1e1e1e"/><path d="M392.738281,227.996094c0,0-4.117187-8.238282,11.226563-7.394532c15.347656.9375,29.851562,11.515626,23.957031,16.851563-5.988281,5.242187-10.292969-1.96875-11.042969-2.34375-.75-.277344-3.648437-5.242187-12.539062-3.835937-.09375-.09375-9.355469,3.558593-11.601563-3.277344Zm0,0" fill="#1e1e1e"/><path d="M405.929688,284.070312c0,0-3.367188-13.667968,18.4375-13.667968c19.742187,0,29.378906,13.480468,15.90625,20.125-2.339844,1.03125-4.867188,1.6875-7.394532,1.875-7.390625.371094-24.703125.371094-26.949218-8.332032Zm0,0" fill="#9e514f"/><path d="M259.394531,278.265625c0,0-4.117187-12.730469,16.5625-14.417969c18.996094-1.496094,29.101563,10.765625,16.75,17.976563-2.152343,1.214843-4.585937,1.964843-6.925781,2.339843-6.921875.933594-23.484375,2.246094-26.386719-5.898437Zm0,0" fill="#9e514f"/><path id="e4NgIKFOaEi18" d="M269.5,252.148438c-1.871094-.1875-3.554688-1.03125-4.304688-2.621094s-.1875-4.398438,3.648438-7.675782c7.675781-6.273437,25.453125-1.03125,31.910156,5.335938c8.609375,8.703125,3.835938,12.261719-4.773437,8.238281-16.9375-7.582031-21.707031-2.808593-26.480469-3.277343Zm0,0" transform="matrix(0 0 0 0 285.103394 248.050949)" fill="#1e1e1e"/><path d="M356.523438,283.882812c-1.027344,1.683594-3.554688,1.964844-5.238282.746094-2.621094-1.964844-4.867187-3.648437-8.140625,0-3.371093,4.027344-.9375,10.394532,5.050781,14.417969c3.089844,1.964844,1.683594,6.925781-1.964843,6.925781-.65625,0-1.402344-.1875-2.339844-.1875-8.234375-.1875-8.421875,5.992188-6.269531,8.894532c0,0,2.152344,3.652343,7.488281,4.117187c6.175781.46875,4.304687,5.804687.933594,5.804687-3.367188,0-11.976563-2.714843-14.128907-6.925781c0,0-6.457031-8.238281.65625-14.605469c5.238282-4.585937,9.355469-3.367187,9.355469-3.367187s-10.386719-4.589844-7.671875-15.820313c0,0,2.714844-9.828124,15.4375-6.742187.28125.1875,9.734375,2.339844,6.832032,6.742187Zm0,0" fill="#1e1e1e"/>
</svg>
