<svg width="348" height="476" viewBox="0 0 348 476" fill="none" xmlns="http://www.w3.org/2000/svg">
<path d="M150.309 443.62L150.309 443.618C154.968 420.847 164.854 400.055 174.741 379.26C175.426 377.82 176.111 376.38 176.793 374.94C177.878 372.649 178.969 370.36 180.059 368.072C191.206 344.676 202.323 321.343 207.173 295.956L207.174 295.954C211.379 274.363 210.259 253.408 199.649 233.403L199.643 233.392L199.637 233.38C199.549 233.192 199.467 232.983 199.391 232.791C199.356 232.7 199.321 232.614 199.289 232.535C199.179 232.269 199.068 232.036 198.922 231.83C198.738 231.57 198.477 231.324 198.032 231.143C198.54 233.342 199.083 235.538 199.624 237.73C200.756 242.314 201.884 246.883 202.694 251.437L202.694 251.437C206.067 270.504 202.189 288.952 196.595 307.092C190.105 328.263 180.623 348.223 171.13 368.206C168.073 374.641 165.015 381.078 162.056 387.559L161.601 387.351L162.056 387.559C153.612 406.035 145.57 424.451 142.478 444.505C141.369 451.678 141.49 458.978 141.739 466.201L141.739 466.209L141.739 466.218C141.739 466.579 141.807 466.988 141.895 467.449C141.906 467.508 141.918 467.568 141.93 467.629C142.006 468.026 142.089 468.456 142.125 468.869C142.167 469.347 142.152 469.857 141.966 470.331C141.773 470.822 141.412 471.23 140.845 471.519C139.684 472.109 138.645 471.745 137.795 471.178C137.375 470.898 136.98 470.555 136.618 470.23C136.545 470.164 136.474 470.1 136.404 470.037C136.12 469.78 135.858 469.544 135.601 469.342C108.218 449.752 88.0409 424.81 76.3329 394.042L76.3327 394.041C56.6601 342.146 61.5168 291.885 92.5245 245.208C109.716 219.306 134.124 199.716 162.363 185.003L162.364 185.002C186.647 172.413 212.923 165.999 240.442 165.999C271.441 165.999 300.699 173.48 327.836 187.846C364.917 207.429 393.554 235.092 411.857 271.787C433.649 315.256 435.519 359.696 416.963 404.594L416.962 404.595C398.288 449.478 364.558 482.703 324.663 510.796C321.585 512.98 318.617 515.299 315.611 517.649C314.154 518.787 312.687 519.933 311.195 521.074C384.121 499.815 455.68 421.787 448.904 323.439C440.607 203.562 331.011 125.694 219.016 137.628C96.9886 150.626 20.717 254.589 34.3368 358.392C41.8912 415.679 70.4915 461.386 118.931 495.651C139.219 509.934 161.377 520.501 186.095 525.287C177.808 518.501 169.671 511.784 163.194 503.473C148.933 485.456 145.941 465.286 150.309 443.62Z" stroke="#0E740E"/>
<path d="M322.469 298.79L322.477 298.788C324.371 298.427 326.258 297.856 328.125 297.248C328.639 297.08 329.151 296.91 329.661 296.741C330.92 296.322 332.169 295.907 333.421 295.541C333.539 295.653 333.659 295.763 333.773 295.862C333.791 295.878 333.809 295.893 333.828 295.909C331.941 298.118 329.346 299.167 326.632 300.263C326.106 300.476 325.575 300.69 325.043 300.916C324.297 301.232 323.406 301.328 322.417 301.34C321.949 301.346 321.471 301.334 320.984 301.321L320.91 301.319C320.402 301.306 319.883 301.294 319.376 301.305C318.37 301.328 317.353 301.444 316.479 301.877C315.58 302.322 314.873 303.08 314.46 304.294L314.459 304.295C313.869 306.047 313.844 307.963 313.953 309.871C313.993 310.574 314.051 311.269 314.108 311.959C314.209 313.18 314.309 314.384 314.309 315.586L314.309 315.608L314.311 315.63C314.373 316.341 314.435 317.023 314.497 317.704C314.56 318.385 314.622 319.065 314.684 319.774L314.684 319.777C315.061 323.856 316.07 327.519 318.016 330.652C319.965 333.791 322.835 336.368 326.886 338.3C331.066 340.294 335.006 342.876 338.579 345.814L338.581 345.816C341.459 348.152 342.742 350.274 342.742 352.311C342.742 354.353 341.454 356.504 338.699 358.899C337.099 360.191 335.505 361.359 333.793 362.409L333.782 362.415L333.783 362.415C329.955 364.888 327.714 366.72 326.937 369.073C326.158 371.429 326.893 374.172 328.497 378.293L328.501 378.301L328.504 378.31C329.383 380.346 330.387 382.259 331.512 384.168L331.516 384.173C332.189 385.282 332.694 386.295 332.984 387.205C333.274 388.117 333.336 388.892 333.166 389.546C332.839 390.806 331.554 391.899 328.368 392.542C327.44 392.725 326.694 392.977 326.138 393.316C325.574 393.66 325.184 394.111 325.034 394.682C324.887 395.242 324.994 395.835 325.249 396.427C325.503 397.019 325.922 397.651 326.464 398.32C327.62 399.751 328.45 400.789 328.944 401.585C329.458 402.415 329.487 402.797 329.391 403.014C329.34 403.129 329.225 403.27 328.972 403.431C328.717 403.593 328.354 403.756 327.858 403.928C326.877 404.269 325.478 404.614 323.581 405.081L323.508 405.098C323.508 405.098 323.507 405.099 323.507 405.099C319.988 405.938 317.565 407.224 316.265 409.269C314.962 411.318 314.87 413.999 315.688 417.423C315.688 417.424 315.689 417.424 315.689 417.424L316.175 417.308C316.662 419.367 317.306 421.35 317.952 423.343C318.458 424.905 318.967 426.472 319.403 428.084L322.469 298.79ZM322.469 298.79L322.461 298.791C320.958 299.03 319.721 299.126 318.722 299.03C317.718 298.932 316.909 298.634 316.318 298.044C315.73 297.456 315.424 296.643 315.288 295.65C315.152 294.661 315.179 293.44 315.304 291.98C317.409 264.465 313.32 238.3 297.262 214.738L297.261 214.737C292.022 207.015 285.063 201.061 274.909 197.501C275.469 199.044 276.028 200.568 276.582 202.078C279.713 210.612 282.679 218.693 284.629 227.013L284.629 227.014C292.106 259.108 287.741 289.892 273.918 319.704C266.242 336.315 256.69 351.954 247.147 367.578C242.323 375.476 237.501 383.371 232.926 391.385C218.168 417.289 207.046 444.074 207.911 474.253L207.911 474.254C208.158 483.46 209.272 492.655 211.742 501.608L211.745 501.618L211.747 501.628C211.794 501.828 211.898 502.051 212.037 502.327C212.05 502.353 212.063 502.379 212.077 502.406C212.196 502.642 212.337 502.921 212.421 503.192C212.516 503.501 212.568 503.894 212.365 504.274C212.168 504.644 211.792 504.886 211.309 505.052C210.863 505.227 210.443 505.267 210.052 505.173C209.662 505.078 209.35 504.861 209.102 504.606C208.654 504.147 208.349 503.489 208.118 502.992L208.08 502.91C208.08 502.908 208.079 502.907 208.078 502.905C203.827 494.317 201.58 485.259 200.582 475.979L200.582 475.978C196.966 441.734 207.194 410.599 224.737 381.289L224.737 381.289C225.506 380.005 226.272 378.726 227.096 377.283C220.738 380.261 215.283 385.18 208.823 395.082C189.013 425.549 179.991 458.464 185.556 494.085C190.235 524.026 212.866 543.176 244.568 545.294L244.573 545.294C249.868 545.698 255.161 545.583 260.484 545.467C261.371 545.448 262.26 545.428 263.149 545.411L263.159 545.411C263.39 545.411 263.646 545.419 263.891 545.427C264.064 545.432 264.232 545.437 264.382 545.439C264.774 545.445 265.127 545.433 265.443 545.375C265.756 545.318 266.016 545.219 266.231 545.06C266.338 544.981 266.44 544.883 266.535 544.758C252.574 539.583 241.81 531.965 234.131 522.151C226.351 512.208 221.76 500.037 220.199 485.928C218.945 474.857 221.703 465.822 227.749 459.332C233.787 452.849 243.046 448.967 254.678 448.072L254.679 448.072C264.288 447.358 273.773 448.072 283.133 450.214C291.28 451.98 299.369 452.437 307.315 449.639C312.706 447.711 316.278 444.963 318.171 441.436C320.063 437.912 320.327 433.523 318.92 428.213L322.469 298.79Z" stroke="#0E740E"/>
<path d="M73.9089 79.6846C73.9297 79.6955 73.99 79.7219 74.0731 79.7219L74.0731 79.2219L74.0731 78.7219C74.4414 78.7219 74.6221 78.7201 74.9149 78.627L75.4115 79.4653L75.4028 79.4736C75.2787 79.5921 75.0578 79.8032 74.673 79.836C74.5668 79.8697 74.4575 79.881 74.348 79.8685C74.2066 79.8523 74.097 79.7997 74.0266 79.7595C73.9917 79.7395 73.9615 79.7196 73.9421 79.7067C73.9318 79.6998 73.9249 79.6952 73.9198 79.6918C73.9149 79.6885 73.9117 79.6864 73.9089 79.6846ZM73.9089 79.6846C73.8999 79.6799 73.8984 79.6781 73.9056 79.6825C73.9067 79.6832 73.9078 79.6839 73.9089 79.6846ZM129.73 110.667L129.731 110.667L129.734 110.672C129.936 110.961 130.257 111.249 130.653 111.554C130.674 111.57 130.694 111.585 130.715 111.601C125.626 92.4103 117.751 75.0802 97.942 65.4615C88.0779 60.7012 77.7439 62.2135 67.4442 63.7209C67.1541 63.7634 66.864 63.8058 66.574 63.8481C55.0548 65.639 44.1586 64.0849 33.6474 59.5497L33.6387 59.546L33.6302 59.5419C33.3165 59.3923 32.9944 59.313 32.6188 59.2413C32.533 59.2249 32.4428 59.2088 32.3489 59.1919C32.0813 59.1439 31.7842 59.0906 31.4765 59.0128C31.4484 59.0234 31.4104 59.0388 31.3594 59.0609C31.2566 59.1055 31.1218 59.1681 30.9389 59.2548C33.6947 72.2615 40.067 83.7816 48.9958 93.9309L48.9961 93.9311C64.3071 111.361 83.9386 121.493 107.425 125.267C115.582 126.525 123.29 128.994 131.197 133.832C128.546 121.779 123.674 112.148 115.8 103.842L115.8 103.841C107.926 95.5098 98.1959 89.8608 87.7993 84.9006C87.7175 84.8764 87.6356 84.8522 87.5537 84.8279C84.041 83.7892 80.3425 82.6955 76.288 80.1175L76.5938 79.197C81.3179 79.5527 84.8656 80.2659 88.1712 82.0728C105.376 87.0776 119.487 96.3698 129.73 110.667ZM31.5319 58.9945C31.5319 58.9945 31.5314 58.9945 31.5305 58.9948L31.5319 58.9945Z" stroke="#0E740E"/>
<path d="M123.709 160.986C100.545 148.756 78.2011 148.312 54.8678 156.194L54.4105 155.318C69.9455 143.832 87.784 143.943 105.761 145.017C93.3562 138.351 80.3908 133.368 66.4354 131.466L66.4348 131.466C52.8347 129.596 42.0873 134.257 34.125 144.889L34.1251 144.889L34.1178 144.898C32.8019 146.571 31.5514 148.3 30.3121 150.013C29.8052 150.714 29.3002 151.412 28.7933 152.103C22.2676 161.553 14.8648 170.079 1.80627 174.082C28.1861 187.34 53.4895 195.106 81.1778 181.207L81.1792 181.207C85.2974 179.156 89.2613 176.895 93.2646 174.611C96.0857 173.002 98.9263 171.381 101.854 169.815C108.551 166.234 115.621 162.989 123.709 160.986Z" stroke="#0E740E"/>
<path d="M167.257 56.722C175.341 71.6891 175.974 86.9865 170.04 103.18C181.277 90.0758 186.703 78.0221 187.052 66.6842C187.419 54.7491 182.163 43.503 171.915 32.5516L171.912 32.548C170.83 31.3694 169.74 30.196 168.647 29.0213C165.362 25.4881 162.065 21.9421 158.982 18.1992C155.053 13.43 152.133 8.21729 150.555 1.24879C141.431 14.7449 135.052 28.1879 132.779 41.9279C130.453 55.9842 132.42 70.3818 140.195 85.506C140.454 86.0076 140.715 86.5094 140.977 87.0118C145.382 95.4794 149.864 104.095 148.959 114.43C156.801 107.102 162.165 98.4773 165.599 88.6518C168.662 79.5845 167.724 70.6132 166.767 61.4534C166.613 59.9762 166.458 58.4941 166.319 57.006L167.257 56.722Z" stroke="#0E740E"/>
<path d="M256.959 84.2339L256.96 84.232C257.954 78.3034 258.832 74.5501 260.395 71.0549C261.875 67.7466 263.961 64.6928 267.291 60.2521C258.244 59.8484 249.923 61.5277 241.668 63.194C241.375 63.2531 241.083 63.3121 240.79 63.371C222.187 67.1312 208.652 77.2244 199.659 93.2032C194.371 102.716 188.012 111.398 176.779 117.584C192.921 120.241 206.518 117.568 219.19 109.472C222.609 107.271 225.593 104.576 228.609 101.853C229.916 100.673 231.229 99.4873 232.585 98.3341C233.855 95.5856 235.666 93.1364 239.014 91.7852L240.111 91.3427L239.664 92.4376C239.474 92.9043 239.288 93.3736 239.101 93.8434C237.611 97.5918 236.108 101.373 232.604 104.093C223.524 115.731 211.185 122.9 196.531 127.441C218.551 134.434 242.06 128.185 251.155 106.386C254.114 99.2148 255.72 91.7983 256.959 84.2339Z" stroke="#0E740E"/>
<path d="M233.112 101.325L232.937 102.494C235.51 100.079 236.777 96.9701 238.104 93.7131C238.157 93.5832 238.211 93.453 238.264 93.3226C235.921 94.5288 234.528 96.5119 233.475 98.9037L233.112 101.325Z" stroke="#0E740E"/>
<path d="M87.476 82.841L87.476 82.8374C84.8535 81.4448 82.113 80.7564 78.4423 80.517C81.6138 82.3434 84.5725 83.2451 87.476 84.0211L87.476 84.0197L87.476 84.0155L87.476 84.0113L87.476 84.007L87.476 84.0028L87.476 83.9986L87.476 83.9943L87.476 83.9901L87.476 83.9859L87.476 83.9817L87.476 83.9775L87.476 83.9733L87.476 83.9691L87.476 83.9649L87.476 83.9607L87.476 83.9565L87.476 83.9523L87.476 83.9481L87.476 83.9439L87.476 83.9397L87.476 83.9355L87.476 83.9313L87.476 83.9272L87.476 83.923L87.476 83.9188L87.476 83.9146L87.476 83.9105L87.476 83.9063L87.476 83.9022L87.476 83.898L87.476 83.8938L87.476 83.8897L87.476 83.8855L87.476 83.8814L87.476 83.8772L87.476 83.8731L87.476 83.869L87.476 83.8648L87.476 83.8607L87.476 83.8566L87.476 83.8524L87.476 83.8483L87.476 83.8442L87.476 83.8401L87.476 83.8359L87.476 83.8318L87.476 83.8277L87.476 83.8236L87.476 83.8195L87.476 83.8154L87.476 83.8113L87.476 83.8072L87.476 83.8031L87.476 83.799L87.476 83.7949L87.476 83.7908L87.476 83.7867L87.476 83.7826L87.476 83.7785L87.476 83.7744L87.476 83.7703L87.476 83.7663L87.476 83.7622L87.476 83.7581L87.476 83.754L87.476 83.75L87.476 83.7459L87.476 83.7418L87.476 83.7378L87.476 83.7337L87.476 83.7296L87.476 83.7256L87.476 83.7215L87.476 83.7175L87.476 83.7134L87.476 83.7094L87.476 83.7053L87.476 83.7013L87.476 83.6972L87.476 83.6932L87.476 83.6891L87.476 83.6851L87.476 83.681L87.476 83.677L87.476 83.673L87.476 83.6689L87.476 83.6649L87.476 83.6609L87.476 83.6569L87.476 83.6528L87.476 83.6488L87.476 83.6448L87.476 83.6408L87.476 83.6367L87.476 83.6327L87.476 83.6287L87.476 83.6247L87.476 83.6207L87.476 83.6167L87.476 83.6127L87.476 83.6087L87.476 83.6046L87.476 83.6006L87.476 83.5966L87.476 83.5926L87.476 83.5886L87.476 83.5846L87.476 83.5806L87.476 83.5766L87.476 83.5726L87.476 83.5687L87.476 83.5647L87.476 83.5607L87.476 83.5567L87.476 83.5527L87.476 83.5487L87.476 83.5447L87.476 83.5407L87.476 83.5368L87.476 83.5328L87.476 83.5288L87.476 83.5248L87.476 83.5208L87.476 83.5169L87.476 83.5129L87.476 83.5089L87.476 83.5049L87.476 83.501L87.476 83.497L87.476 83.493L87.476 83.4891L87.476 83.4851L87.476 83.4811L87.476 83.4772L87.476 83.4732L87.476 83.4692L87.476 83.4653L87.476 83.4613L87.476 83.4574L87.476 83.4534L87.476 83.4494L87.476 83.4455L87.476 83.4415L87.476 83.4376L87.476 83.4336L87.476 83.4297L87.476 83.4257L87.476 83.4218L87.476 83.4178L87.476 83.4138L87.476 83.4099L87.476 83.4059L87.476 83.402L87.476 83.3981L87.476 83.3941L87.476 83.3902L87.476 83.3862L87.476 83.3823L87.476 83.3783L87.476 83.3744L87.476 83.3704L87.476 83.3665L87.476 83.3626L87.476 83.3586L87.476 83.3547L87.476 83.3507L87.476 83.3468L87.476 83.3429L87.476 83.3389L87.476 83.335L87.476 83.331L87.476 83.3271L87.476 83.3232L87.476 83.3192L87.476 83.3153L87.476 83.3114L87.476 83.3074L87.476 83.3035L87.476 83.2995L87.476 83.2956L87.476 83.2917L87.476 83.2877L87.476 83.2838L87.476 83.2799L87.476 83.2759L87.476 83.272L87.476 83.2681L87.476 83.2641L87.476 83.2602L87.476 83.2563L87.476 83.2523L87.476 83.2484L87.476 83.2445L87.476 83.2405L87.476 83.2366L87.476 83.2327L87.476 83.2288L87.476 83.2248L87.476 83.2209L87.476 83.217L87.476 83.213L87.476 83.2091L87.476 83.2052L87.476 83.2012L87.476 83.1973L87.476 83.1934L87.476 83.1894L87.476 83.1855L87.476 83.1816L87.476 83.1776L87.476 83.1737L87.476 83.1698L87.476 83.1658L87.476 83.1619L87.476 83.158L87.476 83.154L87.476 83.1501L87.476 83.1462L87.476 83.1422L87.476 83.1383L87.476 83.1344L87.476 83.1304L87.476 83.1265L87.476 83.1225L87.476 83.1186L87.476 83.1147L87.476 83.1107L87.476 83.1068L87.476 83.1029L87.476 83.0989L87.476 83.095L87.476 83.091L87.476 83.0871L87.476 83.0832L87.476 83.0792L87.476 83.0753L87.476 83.0713L87.476 83.0674L87.476 83.0634L87.476 83.0595L87.476 83.0555L87.476 83.0516L87.476 83.0476L87.476 83.0437L87.476 83.0398L87.476 83.0358L87.476 83.0319L87.476 83.0279L87.476 83.024L87.476 83.02L87.476 83.016L87.476 83.0121L87.476 83.0081L87.476 83.0042L87.476 83.0002L87.476 82.9963L87.476 82.9923L87.476 82.9883L87.476 82.9844L87.476 82.9804L87.476 82.9765L87.476 82.9725L87.476 82.9685L87.476 82.9646L87.476 82.9606L87.476 82.9566L87.476 82.9527L87.476 82.9487L87.476 82.9447L87.476 82.9408L87.476 82.9368L87.476 82.9328L87.476 82.9288L87.476 82.9249L87.476 82.9209L87.476 82.9169L87.476 82.9129L87.476 82.9089L87.476 82.9049L87.476 82.901L87.476 82.897L87.476 82.893L87.476 82.889L87.476 82.885L87.476 82.881L87.476 82.877L87.476 82.873L87.476 82.869L87.476 82.865L87.476 82.861L87.476 82.857L87.476 82.853L87.476 82.849L87.476 82.845L87.476 82.841Z" stroke="#0E740E"/>
<path d="M334.268 295.003C334.389 295.103 334.508 295.207 334.624 295.313C334.717 295.198 334.812 295.081 334.907 294.965L334.909 294.963C334.978 294.877 335.048 294.792 335.116 294.708C334.961 294.675 334.834 294.682 334.727 294.711C334.586 294.748 334.432 294.836 334.268 295.003Z" stroke="#0E740E"/>
<mask id="path-10-inside-1_514_788" fill="white">
<path d="M131.411 112.854L131.795 113.22L131.411 112.976L131.411 112.854Z"/>
</mask>
<path d="M131.411 112.854L130.411 112.854L130.411 110.52L132.1 112.129L131.411 112.854ZM131.795 113.22L132.485 112.496L131.259 114.064L131.795 113.22ZM131.411 112.976L130.875 113.82L130.411 113.525L130.411 112.976L131.411 112.976ZM132.1 112.129L132.485 112.496L131.106 113.944L130.721 113.578L132.1 112.129ZM131.259 114.064L130.875 113.82L131.947 112.131L132.331 112.376L131.259 114.064ZM130.411 112.976L130.411 112.854L132.411 112.854L132.411 112.976L130.411 112.976Z" fill="#0E740E" mask="url(#path-10-inside-1_514_788)"/>
<mask id="path-12-inside-2_514_788" fill="white">
<path d="M74.0662 79.2247C74.1903 79.3468 74.4387 79.469 74.5628 79.469C74.687 79.469 74.9353 79.3468 75.0594 79.2247C74.687 79.1026 74.3145 79.2247 74.0662 79.2247Z"/>
</mask>
<path d="M74.0662 79.2247L73.3649 79.9376L71.6237 78.2247L74.0662 78.2247L74.0662 79.2247ZM75.0594 79.2247L75.371 78.2745L76.9312 78.7861L75.7607 79.9376L75.0594 79.2247ZM74.7675 78.5118C74.7429 78.4877 74.7297 78.4799 74.7357 78.4839C74.7395 78.4864 74.7472 78.4911 74.7558 78.4953C74.7655 78.5001 74.7641 78.4984 74.749 78.4936C74.7409 78.4911 74.7231 78.4859 74.6968 78.4809C74.6724 78.4763 74.6256 78.469 74.5628 78.469L74.5628 80.469C74.2619 80.469 73.997 80.3509 73.8731 80.29C73.7186 80.214 73.5265 80.0966 73.3649 79.9376L74.7675 78.5118ZM74.5628 78.469C74.5001 78.469 74.4533 78.4763 74.4288 78.4809C74.4025 78.4859 74.3847 78.4911 74.3766 78.4936C74.3615 78.4984 74.3601 78.5001 74.3697 78.4953C74.3784 78.4911 74.3861 78.4865 74.3899 78.4839C74.3959 78.4799 74.3826 78.4877 74.3582 78.5118L75.7607 79.9376C75.5991 80.0965 75.407 80.2139 75.2525 80.29C75.1286 80.3509 74.8638 80.469 74.5628 80.469L74.5628 78.469ZM74.7479 80.1749C74.7486 80.1751 74.7187 80.1648 74.6053 80.1749C74.5438 80.1804 74.4924 80.1879 74.3989 80.1997C74.3242 80.2091 74.198 80.2247 74.0662 80.2247L74.0662 78.2247C74.0585 78.2247 74.072 78.225 74.1486 78.2154C74.2064 78.2081 74.3179 78.1926 74.4272 78.1829C74.6553 78.1625 74.9978 78.1521 75.371 78.2745L74.7479 80.1749Z" fill="#0E740E" mask="url(#path-12-inside-2_514_788)"/>
</svg>
