<svg width="33" height="46" viewBox="0 0 33 46" fill="none" xmlns="http://www.w3.org/2000/svg">
<path d="M6.33221 4.42827L6.17214 4.23623L6.33221 4.42827C2.69518 7.45972 0.609673 11.9107 0.609673 16.6409C0.609673 21.4475 2.75724 25.943 6.50313 28.9758L6.34582 29.1701L6.50314 28.9758C8.35553 30.4757 9.41403 32.7563 9.41403 35.2274V35.2278V35.2281L9.41403 38.163C9.41403 40.4524 11.277 42.3152 13.5663 42.3152H15.0337H15.2837V42.5652V44.0327C15.2837 44.705 15.8288 45.2501 16.5011 45.2501C17.1735 45.2501 17.7186 44.705 17.7186 44.0327V42.5652V42.3152H17.9686L19.436 42.3152C21.7254 42.3152 23.5882 40.4523 23.5882 38.163V35.2281C23.5882 32.7523 24.6384 30.4772 26.4781 28.9928L26.6351 29.1873L26.4781 28.9928C31.0021 25.3426 33.1434 19.6204 32.1522 13.8404C30.0731 1.71676 15.5728 -3.27386 6.33221 4.42827ZM20.9034 36.4455H21.1534V36.6955V38.1629C21.1534 39.1101 20.3832 39.8803 19.436 39.8803L13.5663 39.8803C12.6191 39.8803 11.8489 39.1101 11.8489 38.1629L11.8489 36.6955V36.4455H12.0989L20.9034 36.4455ZM17.9686 21.293H17.7186V21.043V19.5756C17.7186 17.0101 19.8054 14.9233 22.3708 14.9233H23.8382H24.0882V15.1733V16.6408C24.0882 19.2063 22.0014 21.293 19.436 21.293H17.9686ZM8.03508 27.0835L8.1924 26.8892L8.03508 27.0835C4.86393 24.5158 3.04443 20.7092 3.04434 16.6409C3.04434 12.6357 4.81118 8.86576 7.89109 6.29868L8.05116 6.49072L7.89109 6.29868C15.6962 -0.206766 27.9896 3.9721 29.7525 14.2519L29.5061 14.2942L29.7525 14.2519C30.5982 19.1835 28.8031 23.9884 24.9493 27.0978C22.9016 28.75 21.5937 31.1358 21.2463 33.793L21.2179 34.0106H20.9984L17.9686 34.0106H17.7186V33.7606V23.9779V23.7279H17.9686H19.436C23.3436 23.7279 26.5231 20.5484 26.5231 16.6408V13.7059C26.5231 13.0336 25.978 12.4885 25.3057 12.4885H22.3708C20.0555 12.4885 17.9957 13.6047 16.701 15.3286L16.5011 15.5947L16.3012 15.3286C15.0066 13.6047 12.9468 12.4885 10.6314 12.4885H7.69661C7.02424 12.4885 6.47919 13.0336 6.47919 13.7059V16.6408C6.47919 20.5484 9.65867 23.7279 13.5663 23.7279H15.0337H15.2837V23.9779V33.7607V34.0107H15.0337H12.0031H11.7838L11.7552 33.7933C11.406 31.14 10.0923 28.7491 8.03508 27.0835ZM15.2837 21.043V21.293H15.0337H13.5663C11.0008 21.293 8.91403 19.2062 8.91403 16.6408V15.1733V14.9233H9.16403H10.6314C13.197 14.9233 15.2837 17.0102 15.2837 19.5756V21.043Z" fill="#49B949" />
</svg>
