<svg width="31" height="32" viewBox="0 0 31 32" fill="none" xmlns="http://www.w3.org/2000/svg">
<path d="M1.10339 30.2859L20.6794 10.7098M10.1737 21.2156L10.5109 20.9435C10.8381 20.6597 11.1344 20.3417 11.3948 19.9945C13.418 17.297 12.8713 13.47 10.1737 11.4468L9.83646 11.719C9.50931 12.0027 9.21296 12.3208 8.95263 12.6679C6.92942 15.3655 7.47611 19.1924 10.1737 21.2156ZM10.1737 21.2156L10.4459 21.5529C10.7296 21.88 11.0477 22.1764 11.3948 22.4367C14.0924 24.4599 17.9193 23.9132 19.9424 21.2156L19.6703 20.8784C19.3865 20.5512 19.0684 20.2548 18.7213 19.9945C16.0237 17.9713 12.1968 18.5181 10.1737 21.2156ZM15.0581 16.3312L15.3953 16.0591C15.7224 15.7753 16.0188 15.4573 16.2791 15.1101C18.3023 12.4126 17.7556 8.5856 15.0581 6.5624L14.7208 6.83455C14.3937 7.11832 14.0973 7.43636 13.837 7.78347C11.8138 10.4811 12.3605 14.308 15.0581 16.3312ZM15.0581 16.3312L15.3302 16.6685C15.614 16.9956 15.932 17.292 16.2792 17.5523C18.9767 19.5755 22.8036 19.0288 24.8268 16.3312L24.5546 15.994C24.2708 15.6668 23.9528 15.3704 23.6057 15.1101C20.9081 13.0869 17.0812 13.6337 15.0581 16.3312ZM19.9424 11.4468L20.2796 11.1747C20.6068 10.8909 20.9031 10.5729 21.1635 10.2257C23.1867 7.52816 22.64 3.7012 19.9424 1.678L19.6052 1.95015C19.278 2.23391 18.9817 2.55195 18.7213 2.89907C16.6981 5.59665 17.2448 9.4236 19.9424 11.4468ZM19.9424 11.4468L20.2146 11.7841C20.4984 12.1112 20.8164 12.4076 21.1635 12.6679C23.8611 14.6911 27.688 14.1444 29.7111 11.4468L29.439 11.1096C29.1552 10.7824 28.8371 10.486 28.49 10.2257C25.7925 8.20253 21.9656 8.74925 19.9424 11.4468ZM5.17369 26.2156L5.51092 25.9435C5.83808 25.6597 6.13443 25.3417 6.39476 24.9945C8.41797 22.297 7.87128 18.47 5.17369 16.4468L4.83646 16.719C4.50931 17.0027 4.21296 17.3208 3.95262 17.6679C1.92942 20.3655 2.47611 24.1924 5.17369 26.2156ZM5.17369 26.2156L5.44585 26.5529C5.72963 26.88 6.04768 27.1764 6.39482 27.4367C9.09237 29.4599 12.9193 28.9132 14.9424 26.2156L14.6703 25.8784C14.3865 25.5512 14.0684 25.2548 13.7213 24.9945C11.0237 22.9713 7.19685 23.5181 5.17369 26.2156ZM29.8905 1.49984C30.3673 4.83797 28.0479 7.93057 24.7098 8.40743C24.2803 8.46879 23.8458 8.48413 23.4138 8.45345L22.9829 8.40736C22.5061 5.0693 24.8255 1.9767 28.1636 1.49984C28.7363 1.41802 29.3177 1.41802 29.8905 1.49984Z" stroke="#49B949" stroke-width="1.66667" stroke-linecap="round"/>
</svg>
