<svg width="20" height="24" viewBox="0 0 20 24" fill="none" xmlns="http://www.w3.org/2000/svg">
<path d="M10.7876 21.5025L0.997559 11.7125V13.7125C0.997559 14.2425 1.20756 14.7525 1.58756 15.1225L9.37756 22.9125C10.1576 23.6925 11.4276 23.6925 12.2076 22.9125L18.4176 16.7025C19.1976 15.9225 19.1976 14.6525 18.4176 13.8725L10.7876 21.5025Z" fill="#86BB86"/>
<path d="M9.37756 17.9125C9.76756 18.3025 10.2776 18.5025 10.7876 18.5025C11.2976 18.5025 11.8076 18.3025 12.1976 17.9125L18.4076 11.7025C19.1876 10.9225 19.1876 9.6525 18.4076 8.8725L10.6176 1.0825C10.2476 0.712502 9.73756 0.502502 9.20756 0.502502H2.99756C1.89756 0.502502 0.997559 1.4025 0.997559 2.5025V8.7125C0.997559 9.2425 1.20756 9.7525 1.58756 10.1225L9.37756 17.9125ZM2.99756 2.5025H9.20756L16.9976 10.2925L10.7876 16.5025L2.99756 8.7125V2.5025Z" fill="#86BB86"/>
<path d="M5.24756 6.0025C5.93791 6.0025 6.49756 5.44286 6.49756 4.7525C6.49756 4.06215 5.93791 3.5025 5.24756 3.5025C4.5572 3.5025 3.99756 4.06215 3.99756 4.7525C3.99756 5.44286 4.5572 6.0025 5.24756 6.0025Z" fill="#86BB86"/>
</svg>
